<svg fill="#ffffff" width="800px" height="800px" viewBox="0 0 32 32" version="1.1" xmlns="http://www.w3.org/2000/svg" transform="matrix(1, 0, 0, 1, 0, 0)" stroke="#ffffff">

<g id="SVGRepo_bgCarrier" stroke-width="0"/>

<g id="SVGRepo_tracerCarrier" stroke-linecap="round" stroke-linejoin="round"/>

<g id="SVGRepo_iconCarrier"> <title>nativescript</title> <path d="M11.026 13.576l9.91 12.571h2.649c0.553-0.044 1.054-0.239 1.47-0.543l-0.008 0.006c0.383-0.317 0.664-0.744 0.796-1.233l0.004-0.017v-6.173c0.088-1.18 1.030-2.113 2.205-2.187l0.007-0q-2.062-0.75-2.212-2.324v-5.898c-0.134-0.534-0.415-0.99-0.797-1.335l-0.002-0.002c-0.362-0.33-0.834-0.545-1.354-0.587l-0.008-0h-2.687v12.746l-9.972-12.759h-2.787c-0.613 0.077-1.151 0.349-1.563 0.75l0.001-0c-0.389 0.489-0.637 1.106-0.674 1.779l-0 0.008v6.061c-0.394 0.813-1.146 1.4-2.045 1.559l-0.017 0.002c0.973 0.118 1.763 0.788 2.057 1.682l0.005 0.017v5.961c0.006 0.662 0.261 1.262 0.676 1.714l-0.002-0.002c0.308 0.383 0.777 0.626 1.303 0.626 0.025 0 0.050-0.001 0.075-0.002l-0.004 0h2.949zM3.216 3.204c1.272-1.333 3.054-2.17 5.031-2.199l0.005-0h15.745c1.898 0.062 3.59 0.895 4.782 2.194l0.005 0.005c1.34 1.226 2.185 2.973 2.212 4.919l0 0.005v15.958c-0.046 1.843-0.843 3.491-2.095 4.658l-0.004 0.004c-1.284 1.353-3.081 2.207-5.078 2.249l-0.008 0h-15.471c-1.97-0.020-3.763-0.76-5.132-1.969l0.009 0.007c-1.366-1.347-2.212-3.218-2.212-5.287 0-0.030 0-0.061 0.001-0.091l-0 0.005v-15.496c-0-0.021-0-0.046-0-0.071 0-1.945 0.853-3.691 2.205-4.884l0.007-0.006z"/> </g>

</svg>