<svg width="960" height="960" viewBox="0 0 960 960" fill="none" xmlns="http://www.w3.org/2000/svg">
<g clip-path="url(#clip0_348_1465)">
<path d="M846.599 451.558C845.23 446.298 843.699 441.069 841.98 435.908L842.305 435.8C855.394 440.153 867.764 447.362 876.705 457.861C885.646 468.36 890.887 482.355 889.331 496.061C888.159 506.303 883.343 515.866 877.089 524.08C869.932 533.385 860.976 541.155 850.754 546.928C840.532 552.7 829.253 556.357 817.589 557.68L816.789 557.65L818.581 512.05L816.917 511.115C823.317 510.73 829.651 509.558 835.078 506.259C843.617 501.049 848.512 491.159 849.772 481.233C851.032 471.307 849.099 461.249 846.599 451.558Z" fill="white" fill-opacity="0.96"/>
<path d="M827.706 280.218L822.693 411.453L821.255 449.194L821.413 450.287C815.779 451.055 810.195 451.627 804.552 452.06L804.424 450.46L810.963 280.213C811.394 269.281 807.587 258.605 800.337 250.411C793.087 242.218 782.954 237.14 772.051 236.238L772.061 236.09L783.239 236.14C789.12 235.856 794.997 236.799 800.494 238.908C805.992 241.018 810.99 244.248 815.172 248.393C819.354 252.539 822.628 257.509 824.786 262.988C826.943 268.466 827.938 274.334 827.706 280.218Z" fill="#171717"/>
<path d="M780.5 662.519C782.548 670.448 780.461 687.338 776.186 689.269L593.993 771.437C564.732 784.624 531.628 786.526 501.05 776.775L500.685 776.657L434.885 755.65L434.461 754.98C438.41 752.518 442.362 750.059 446.319 747.603C448.833 746.226 451.09 744.423 452.987 742.275L453.787 742.344L501.052 757.078C531.63 766.828 564.734 764.927 593.995 751.74L776.188 669.571C777.482 669.007 778.528 667.995 779.135 666.721C779.741 665.446 779.867 663.996 779.488 662.637L780.5 662.519Z" fill="#171717"/>
<path d="M816.793 557.649L814.528 615.107C813.582 639.266 792.828 658.59 768.75 656.374H756.9L756.871 656.669L751.68 656.196L751.749 655.467C757.453 655.994 763.204 655.353 768.652 653.584C774.101 651.816 779.132 648.956 783.439 645.18C787.746 641.404 791.239 636.79 793.705 631.62C796.171 626.449 797.559 620.831 797.783 615.107L801.84 512.049L801.87 511.133C804.844 511.242 807.75 511.291 810.537 511.291C812.654 511.281 814.791 511.242 816.919 511.114L818.583 512.049L816.793 557.649Z" fill="#171717"/>
<path d="M667.486 665.178L719.438 671.383C720.021 671.451 720.564 671.711 720.983 672.122C721.402 672.533 721.673 673.072 721.753 673.653C721.833 674.234 721.718 674.826 721.426 675.335C721.133 675.844 720.68 676.241 720.138 676.465L676.938 694.265L626.305 686.15C649.551 674.328 667.486 665.178 667.486 665.178Z" fill="#171717"/>
<path d="M621.187 659.653L667.487 665.178C667.487 665.178 649.552 674.328 626.309 686.147L581.645 678.986L621.187 659.653Z" fill="#171717"/>
<path d="M626.307 686.146L676.94 694.262L631.1 713.151L589.391 704.869C601.98 698.5 614.794 691.999 626.307 686.146Z" fill="#171717"/>
<path d="M546.246 696.291L581.646 678.986L626.31 686.147C614.797 691.997 601.983 698.497 589.397 704.869L546.246 696.291Z" fill="#171717"/>
<path d="M552.766 723.326C563.6 717.899 576.374 711.458 589.394 704.869L631.103 713.152L586.449 731.552L552.766 723.326Z" fill="#171717"/>
<path d="M586.45 731.55L558.174 743.2C553.889 744.963 549.138 745.247 544.674 744.007L522.721 737.907C523.371 737.907 535.633 731.889 552.77 723.321L586.45 731.55Z" fill="#171717"/>
<path d="M532.379 671.088L581.643 678.988L546.243 696.293L501.443 687.393C512 681.823 522.747 676.16 532.379 671.088Z" fill="#171717"/>
<path d="M581.643 678.986L532.379 671.086C551.633 660.932 566.446 653.112 566.446 653.112L621.186 659.651L581.643 678.986Z" fill="#171717"/>
<path d="M552.766 723.326L511.549 713.26L546.249 696.291L589.397 704.869C576.374 711.458 563.6 717.9 552.766 723.326Z" fill="#171717"/>
<path d="M483.42 727.009L511.549 713.26L552.766 723.326C535.629 731.894 523.366 737.912 522.717 737.912H522.7L483.42 727.009Z" fill="#171717"/>
<path d="M546.245 696.291L511.545 713.26L471.076 703.372C480.068 698.645 490.655 693.072 501.44 687.387L546.245 696.291Z" fill="#171717"/>
<path d="M520.067 647.579L566.445 653.114C566.445 653.114 551.632 660.934 532.378 671.088L487.32 663.859C505.845 654.68 520.067 647.579 520.067 647.579Z" fill="#171717"/>
<path d="M520.067 647.579C520.067 647.579 505.845 654.679 487.32 663.859L450.869 658.018L483.41 643.2H483.419L520.067 647.579Z" fill="#171717"/>
<path d="M511.549 713.26L483.42 727.009L445.887 716.589C446.94 716.067 457.087 710.749 471.08 703.372L511.549 713.26Z" fill="#171717"/>
<path d="M501.444 687.387C490.659 693.07 480.072 698.645 471.08 703.372L428.336 692.932C437.003 688.717 447.136 683.732 457.449 678.652L501.444 687.387Z" fill="#171717"/>
<path d="M457.449 678.652C467.649 673.619 478.033 668.478 487.321 663.859L532.379 671.088C522.747 676.16 512.002 681.823 501.444 687.388L457.449 678.652Z" fill="#171717"/>
<path d="M452.505 639.503L483.411 643.196L450.87 658.018L418.625 652.848L452.495 639.503H452.505Z" fill="#171717"/>
<path d="M421.324 671.472L450.87 658.018L487.321 663.859C478.033 668.478 467.653 673.619 457.449 678.652L421.324 671.472Z" fill="#171717"/>
<path d="M450.87 658.018L421.324 671.472L388.104 664.873L418.625 652.848L450.87 658.018Z" fill="#171717"/>
<path d="M421.324 671.472L457.449 678.652C447.137 683.734 437.003 688.717 428.336 692.932L393.1 684.325L421.324 671.472Z" fill="#171717"/>
<path d="M421.207 635.77L452.501 639.5L418.631 652.845L385.756 647.576L416.937 636.259C418.302 635.763 419.765 635.596 421.207 635.77Z" fill="#171717"/>
<path d="M393.1 684.325L428.339 692.932C413.97 699.932 403.628 704.859 403.185 704.732L370.861 695.77L371.275 694.263L393.1 684.325Z" fill="#171717"/>
<path d="M359.531 676.12L388.103 664.873L421.323 671.472L393.096 684.325L359.531 676.12Z" fill="#171717"/>
<path d="M445.887 716.589L403.188 704.731C403.63 704.859 413.972 699.931 428.341 692.931L471.085 703.371C457.085 710.749 446.94 716.067 445.887 716.589Z" fill="#171717"/>
<path d="M240.608 413.788L295.121 412.064L315.656 411.414V432.274H403.182L401.015 595.3C400.914 602.87 403.671 610.2 408.734 615.828C413.798 621.456 420.797 624.968 428.336 625.664L751.751 655.464L751.682 656.193L414.351 625.419C410.243 625.042 406.102 625.549 402.207 626.906L275.64 671.006C274.65 671.344 273.741 671.884 272.971 672.592L272.961 672.582C266.175 674.945 268.982 702.699 275.827 704.882L396.534 743.361L396.524 743.401C396.524 743.401 395.579 746.257 393.846 750.925C391.895 756.194 388.941 763.768 385.228 772.12C376.236 792.379 362.792 817.237 348.328 825.057C322.6 838.971 82.751 808.38 63.989 650.573C45.227 492.766 228.75 432.273 228.75 432.273L227.381 414.2L240.608 413.788Z" fill="white" fill-opacity="0.96"/>
<path d="M393.097 684.325L371.272 694.262L370.858 695.769L334.969 685.802L359.532 676.12L393.097 684.325Z" fill="#171717"/>
<path d="M388.104 664.873L359.532 676.12L328.184 668.468L355.79 658.452L388.104 664.873Z" fill="#171717"/>
<path d="M355.789 658.452L385.749 647.579L418.624 652.848L388.103 664.873L355.789 658.452Z" fill="#171717"/>
<path d="M359.531 676.12L334.968 685.8L312.04 679.437C311.5 679.286 311.021 678.966 310.674 678.526C310.327 678.085 310.128 677.545 310.107 676.984C310.086 676.423 310.244 675.87 310.558 675.405C310.872 674.939 311.326 674.586 311.853 674.395L328.183 668.466L359.531 676.12Z" fill="#171717"/>
<path d="M328.184 275.441C322.458 277.876 316.558 279.877 310.534 281.429C293.772 285.792 276.399 287.171 259.124 288.529L258.73 288.638C255.607 304.569 250.895 320.147 244.666 335.138C240.882 344.266 236.434 353.104 231.36 361.582C229.93 346.365 231.42 331.014 235.752 316.356C232.742 323.468 228.362 329.917 222.86 335.335C221.698 336.487 219.906 337.64 218.576 336.704C217.576 336.015 217.522 334.596 217.562 333.395C218.122 316.691 218.677 299.988 219.226 283.284L219.778 282.555C244.941 276.321 263.309 258.327 282.357 240.747C293.423 230.535 304.447 220.282 315.429 209.989C315.754 223.699 308.545 236.325 301.562 248.134C315.144 239.703 328.722 231.272 342.297 222.842C340.274 235.343 335.316 247.187 327.829 257.4C334.222 251.969 341.633 247.864 349.629 245.326C352.811 244.321 356.858 243.799 358.976 246.389C361.596 249.61 358.818 254.337 355.876 257.272C347.88 265.029 338.483 271.195 328.184 275.441Z" fill="#171717"/>
<path d="M275.826 704.889C268.981 702.702 266.174 674.948 272.96 672.589L272.97 672.599C272.019 673.493 271.318 674.62 270.937 675.868C270.555 677.116 270.506 678.443 270.795 679.716C271.083 680.989 271.699 682.164 272.582 683.126C273.464 684.088 274.583 684.802 275.826 685.199L424.435 732.631L424.721 733.301C421.502 734.732 418.406 736.425 415.463 738.363C406.835 744.016 401.123 743.632 393.845 750.94C395.578 746.272 396.523 743.416 396.523 743.416L396.533 743.376L275.826 704.889Z" fill="#171717"/>
<path d="M259.299 380.6C254.414 378.187 252.592 371.815 253.774 366.506C254.956 361.197 258.442 356.727 261.958 352.57C262.73 357.467 265.371 361.873 269.325 364.862C269.532 365.009 269.739 365.167 269.946 365.305L269.394 365.975C263.426 368.575 260.087 375.045 262.106 381.24L262.057 381.486C261.099 381.331 260.169 381.032 259.299 380.6V380.6Z" fill="#171717"/>
<path d="M801.841 512.049L797.784 615.107C797.56 620.831 796.173 626.449 793.707 631.619C791.241 636.79 787.748 641.403 783.441 645.18C779.134 648.956 774.102 651.816 768.654 653.584C763.206 655.353 757.454 655.993 751.75 655.467L428.335 625.667C420.796 624.971 413.797 621.458 408.733 615.83C403.669 610.201 400.913 602.871 401.014 595.3L403.181 432.273L404.964 298.773C405.125 286.543 409.944 274.835 418.439 266.036C426.934 257.237 438.466 252.01 450.682 251.42L766.499 236.145C768.351 236.055 770.207 236.088 772.054 236.245C782.958 237.148 793.091 242.225 800.341 250.419C807.591 258.612 811.398 269.288 810.966 280.22L804.427 450.467" stroke="#171717" stroke-width="3" stroke-linecap="round" stroke-linejoin="round"/>
<path d="M770.691 508.937L767.854 593.666C767.725 597.532 766.804 601.33 765.15 604.827C763.496 608.324 761.142 611.444 758.235 613.996C755.328 616.548 751.929 618.477 748.247 619.665C744.566 620.852 740.68 621.272 736.83 620.9L454.888 601.053C447.193 600.308 440.06 596.696 434.905 590.934C429.751 585.172 426.952 577.683 427.066 569.953L436.55 314.308C436.679 305.542 440.179 297.162 446.325 290.91C452.47 284.658 460.788 281.013 469.55 280.733L743.869 272.033C748.329 271.889 752.771 272.662 756.919 274.305C761.068 275.948 764.835 278.424 767.988 281.582C771.141 284.74 773.612 288.511 775.248 292.663C776.884 296.814 777.651 301.257 777.5 305.717L772.6 452.257" stroke="#171717" stroke-width="3" stroke-linecap="round" stroke-linejoin="round"/>
<path d="M424.435 732.623L275.826 685.191C274.321 684.725 273.002 683.795 272.058 682.533C271.115 681.271 270.596 679.743 270.575 678.168C270.554 676.592 271.033 675.051 271.943 673.765C272.853 672.478 274.147 671.513 275.639 671.009L402.206 626.909C406.102 625.552 410.242 625.045 414.35 625.422L751.681 656.2L756.872 656.673L774.284 658.259C775.59 658.376 776.821 658.922 777.784 659.813C778.746 660.704 779.386 661.889 779.603 663.183C779.82 664.476 779.602 665.805 778.984 666.962C778.365 668.118 777.381 669.037 776.184 669.575L593.992 751.74C564.731 764.926 531.627 766.828 501.049 757.078L453.784 742.344" stroke="#171717" stroke-width="3" stroke-linecap="round" stroke-linejoin="round"/>
<path d="M396.524 743.408C396.524 743.408 395.579 746.264 393.846 750.932C391.895 756.201 388.941 763.775 385.228 772.127C376.236 792.386 362.792 817.244 348.328 825.064C322.6 838.971 82.751 808.38 63.989 650.573C45.227 492.766 228.75 432.273 228.75 432.273L227.381 414.2L240.608 413.787L295.121 412.063L315.656 411.413V432.273H403.182" stroke="#171717" stroke-width="3" stroke-linecap="round" stroke-linejoin="round"/>
<path d="M196.072 510.828C196.072 510.828 111.264 565.055 209.978 663.081" stroke="#171717" stroke-width="3" stroke-linecap="round" stroke-linejoin="round"/>
<path d="M818.585 512.049L816.793 557.649L814.528 615.107C813.582 639.266 792.828 658.59 768.75 656.374H756.9" stroke="#171717" stroke-width="3" stroke-linecap="round" stroke-linejoin="round"/>
<path d="M772.061 236.1L783.239 236.15C789.12 235.866 794.995 236.809 800.493 238.918C805.99 241.027 810.988 244.257 815.17 248.401C819.352 252.546 822.626 257.516 824.784 262.994C826.942 268.472 827.937 274.339 827.706 280.223L822.693 411.458L821.255 449.199" stroke="#171717" stroke-width="3" stroke-linecap="round" stroke-linejoin="round"/>
<path d="M400.227 744.55L396.533 743.368L275.826 704.889C268.981 702.702 266.174 674.948 272.96 672.589" stroke="#171717" stroke-width="3" stroke-linecap="round" stroke-linejoin="round"/>
<path d="M777.516 658.452C778.916 658.58 779.889 660.146 780.5 662.519C782.548 670.448 780.461 687.338 776.186 689.269L593.993 771.437C564.732 784.625 531.628 786.526 501.05 776.775L500.685 776.657L434.885 755.65" stroke="#171717" stroke-width="3" stroke-linecap="round" stroke-linejoin="round"/>
<path d="M393.846 750.932C401.124 743.624 406.836 744.008 415.464 738.355C418.406 736.417 421.502 734.724 424.722 733.293C430.925 730.439 437.695 729.032 444.522 729.176C448.481 729.334 453.022 730.584 454.558 734.238C455.658 736.878 454.745 740.01 452.992 742.275C451.094 744.424 448.838 746.227 446.324 747.603C442.374 750.065 438.422 752.524 434.466 754.98C430.332 757.55 426.193 760.124 422.047 762.701" stroke="#171717" stroke-width="3" stroke-linecap="round" stroke-linejoin="round"/>
<path d="M385.75 772.235C407.831 778.725 445.887 793.085 474.202 791.235C498.519 789.65 498.282 787.503 500.666 776.708" stroke="#171717" stroke-width="3" stroke-linecap="round" stroke-linejoin="round"/>
<path d="M258.73 288.639C255.607 304.57 250.895 320.148 244.666 335.139C240.882 344.267 236.434 353.105 231.36 361.583C229.93 346.366 231.42 331.015 235.752 316.357C232.742 323.469 228.362 329.918 222.86 335.336C221.698 336.488 219.906 337.641 218.576 336.705C217.576 336.016 217.522 334.597 217.562 333.396C218.122 316.692 218.677 299.988 219.226 283.285" stroke="#171717" stroke-width="3" stroke-linecap="round" stroke-linejoin="round"/>
<path d="M219.777 282.552C244.94 276.318 263.308 258.324 282.356 240.744C293.423 230.532 304.447 220.279 315.428 209.986C315.753 223.696 308.544 236.322 301.561 248.131C315.143 239.7 328.722 231.269 342.296 222.839C340.274 235.342 335.316 247.186 327.828 257.4C334.222 251.969 341.632 247.865 349.628 245.326C352.81 244.321 356.857 243.799 358.975 246.389C361.595 249.61 358.817 254.337 355.875 257.272C347.882 265.029 338.487 271.196 328.19 275.443C322.465 277.878 316.565 279.879 310.54 281.431C293.778 285.794 276.405 287.173 259.13 288.531" stroke="#171717" stroke-width="3" stroke-linecap="round" stroke-linejoin="round"/>
<path d="M328.184 275.4V275.439C328.174 294.281 328.164 313.114 328.154 331.939C328.154 344.496 327.386 358.767 317.754 366.823C313.066 370.733 306.782 372.623 302.744 377.194C294.737 386.245 299.13 400.644 295.121 412.039" stroke="#171717" stroke-width="3" stroke-linecap="round" stroke-linejoin="round"/>
<path d="M284.18 353.227C288.11 355.02 292.896 352.227 294.817 348.362C296.738 344.497 296.58 339.971 296.363 335.657C295.919 326.626 295.473 317.598 295.024 308.573C294.876 305.48 294.777 302.173 296.393 299.532C298.343 296.36 302.393 294.991 306.093 295.232C309.793 295.473 313.293 297.004 316.693 298.521" stroke="#171717" stroke-width="3" stroke-linecap="round" stroke-linejoin="round"/>
<path d="M307.777 323.129V313.852" stroke="#171717" stroke-width="3" stroke-linecap="round" stroke-linejoin="round"/>
<path d="M275.826 320.342C275.984 317.565 276.135 314.785 276.279 312" stroke="#171717" stroke-width="3" stroke-linecap="round" stroke-linejoin="round"/>
<path d="M283.201 368.463C278.545 369.064 273.829 367.94 269.945 365.302C269.738 365.164 269.531 365.002 269.324 364.859C265.369 361.87 262.728 357.464 261.957 352.567C258.441 356.724 254.957 361.195 253.773 366.503C252.589 371.811 254.413 378.184 259.298 380.597C260.168 381.029 261.097 381.328 262.056 381.483C266.456 382.212 271.274 380.083 275.283 377.711" stroke="#171717" stroke-width="3" stroke-linecap="round" stroke-linejoin="round"/>
<path d="M262.108 381.237C260.089 375.037 263.428 368.572 269.396 365.972" stroke="#171717" stroke-width="3" stroke-linecap="round" stroke-linejoin="round"/>
<path d="M244.754 335.174C243.366 361.382 241.984 387.586 240.608 413.788C240.608 413.847 240.598 413.906 240.598 413.965" stroke="#171717" stroke-width="3" stroke-linecap="round" stroke-linejoin="round"/>
<path d="M811.4 491.958C794.962 491.758 779.214 491.198 761.053 490.381C757.921 490.243 753.981 488.767 751.322 490.441C748.663 492.115 747.835 496.141 748.545 499.196C749.49 503.244 754.208 504.947 758.255 505.873C762.205 506.773 766.43 507.558 770.793 508.238C781.09 509.799 791.468 510.766 801.876 511.132C804.85 511.241 807.756 511.29 810.543 511.29C812.66 511.28 814.797 511.242 816.925 511.114C823.325 510.729 829.659 509.556 835.086 506.257C843.625 501.047 848.52 491.157 849.78 481.231C851.04 471.305 849.101 461.249 846.599 451.558C845.23 446.298 843.699 441.068 841.98 435.907C840.434 431.209 838.743 426.558 836.908 421.952C835.708 418.919 834.377 415.826 832.023 413.571C829.669 411.316 826.015 410.084 823.061 411.463" stroke="#171717" stroke-width="3" stroke-linecap="round" stroke-linejoin="round"/>
<path d="M811.4 491.958C813.714 492.036 815.96 492.066 818.126 492.027C815.857 492.017 813.621 491.987 811.4 491.958Z" stroke="#171717" stroke-width="3" stroke-linecap="round" stroke-linejoin="round"/>
<path d="M782.045 470.724C771.802 470.733 761.658 471.009 752.617 471.866C750.064 472.072 747.629 473.028 745.617 474.614C743.658 476.229 742.525 479.125 743.677 481.38C744.987 483.95 748.385 484.315 751.241 484.709C771.313 487.457 793.374 491.347 811.398 491.958" stroke="#171717" stroke-width="3" stroke-linecap="round" stroke-linejoin="round"/>
<path d="M782.047 470.724C795.496 471.647 808.984 471.884 822.457 471.433C810.54 471.226 796.19 470.714 782.047 470.724Z" stroke="#171717" stroke-width="3" stroke-linecap="round" stroke-linejoin="round"/>
<path d="M824.316 449.883C823.341 450.021 822.376 450.159 821.416 450.283C815.782 451.051 810.198 451.623 804.555 452.056C794.371 452.844 783.971 453.189 772.625 453.425C771.197 453.445 769.749 453.474 768.282 453.504C765.829 453.553 756.463 454.242 754.375 455.533C753.318 456.144 752.458 457.044 751.894 458.128C751.331 459.211 751.088 460.432 751.194 461.649C751.933 466.908 766.066 469.518 782.05 470.72" stroke="#171717" stroke-width="3" stroke-linecap="round" stroke-linejoin="round"/>
<path d="M842.3 435.8C855.389 440.153 867.759 447.362 876.7 457.861C885.641 468.36 890.882 482.355 889.326 496.061C888.154 506.303 883.338 515.866 877.084 524.08C869.927 533.385 860.971 541.155 850.749 546.928C840.527 552.7 829.248 556.357 817.584 557.68" stroke="#171717" stroke-width="3" stroke-linecap="round" stroke-linejoin="round"/>
<path d="M305.365 432.039L305.738 419.523" stroke="#171717" stroke-width="3" stroke-linecap="round" stroke-linejoin="round"/>
<path d="M284.6 432.505V419.528" stroke="#171717" stroke-width="3" stroke-linecap="round" stroke-linejoin="round"/>
<path d="M262.353 434.359C263.122 430.205 262.964 425.931 261.889 421.846" stroke="#171717" stroke-width="3" stroke-linecap="round" stroke-linejoin="round"/>
<path d="M242.9 435.286L242.434 422.308" stroke="#171717" stroke-width="3" stroke-linecap="round" stroke-linejoin="round"/>
<path d="M365.15 483.907L375.55 470.329" stroke="#171717" stroke-width="3" stroke-linecap="round" stroke-linejoin="round"/>
<path d="M333 523.723L321.52 509.131" stroke="#171717" stroke-width="3" stroke-linecap="round" stroke-linejoin="round"/>
<path d="M316.346 475.724C318.709 471.544 322.37 468.249 326.775 466.339" stroke="#171717" stroke-width="3" stroke-linecap="round" stroke-linejoin="round"/>
<path d="M271.98 413.174C274.745 495.453 292.825 576.496 325.292 652.149" stroke="#171717" stroke-width="3" stroke-linecap="round" stroke-linejoin="round"/>
<path d="M366.135 566.229L353.369 581.663" stroke="#171717" stroke-width="3" stroke-linecap="round" stroke-linejoin="round"/>
<path d="M343.46 622.761L334.074 614.419" stroke="#171717" stroke-width="3" stroke-linecap="round" stroke-linejoin="round"/>
<path d="M245.436 513.266L235.008 508.052" stroke="#171717" stroke-width="3" stroke-linecap="round" stroke-linejoin="round"/>
<path d="M203.656 479.851L210.712 469.261" stroke="#171717" stroke-width="3" stroke-linecap="round" stroke-linejoin="round"/>
<path d="M237.057 612.366L222.473 596.71" stroke="#171717" stroke-width="3" stroke-linecap="round" stroke-linejoin="round"/>
<path d="M254.82 582.091L265.249 571.663" stroke="#171717" stroke-width="3" stroke-linecap="round" stroke-linejoin="round"/>
<path d="M281.84 657.321L270.395 649.982" stroke="#171717" stroke-width="3" stroke-linecap="round" stroke-linejoin="round"/>
<path d="M312.113 765.533L323.478 758.073" stroke="#171717" stroke-width="3" stroke-linecap="round" stroke-linejoin="round"/>
<path d="M251.5 799.107L243.164 784.507" stroke="#171717" stroke-width="3" stroke-linecap="round" stroke-linejoin="round"/>
<path d="M205.809 734.342L219.521 727.278L219.412 724.955" stroke="#171717" stroke-width="3" stroke-linecap="round" stroke-linejoin="round"/>
<path d="M151.581 738.514L145.324 722.871" stroke="#171717" stroke-width="3" stroke-linecap="round" stroke-linejoin="round"/>
<path d="M163.053 675.945L173.481 670.731" stroke="#171717" stroke-width="3" stroke-linecap="round" stroke-linejoin="round"/>
<path d="M111.955 653L101.527 644.66" stroke="#171717" stroke-width="3" stroke-linecap="round" stroke-linejoin="round"/>
<path d="M123.244 598.577L135.808 587.161" stroke="#171717" stroke-width="3" stroke-linecap="round" stroke-linejoin="round"/>
<path d="M121.354 551.838L111.967 541.412" stroke="#171717" stroke-width="3" stroke-linecap="round" stroke-linejoin="round"/>
<path d="M148.453 517.437L159.924 507.009" stroke="#171717" stroke-width="3" stroke-linecap="round" stroke-linejoin="round"/>
<path d="M835.667 542.812L834.277 530.298" stroke="#171717" stroke-width="3" stroke-linecap="round" stroke-linejoin="round"/>
<path d="M863.477 498.319L874.6 494.147" stroke="#171717" stroke-width="3" stroke-linecap="round" stroke-linejoin="round"/>
<path d="M317.078 827.425C343.695 802.97 362.805 771.449 372.178 736.54" stroke="#171717" stroke-width="3" stroke-linecap="round" stroke-linejoin="round"/>
<path d="M860.033 456.213C862.781 458.16 864.973 460.789 866.395 463.842" stroke="#171717" stroke-width="3" stroke-linecap="round" stroke-linejoin="round"/>
<path d="M386.199 215L412.381 198.491" stroke="#171717" stroke-width="3" stroke-linecap="round" stroke-linejoin="round"/>
<path d="M369.023 205.838C378.25 181.362 388.124 157.145 398.644 133.186" stroke="#171717" stroke-width="3" stroke-linecap="round" stroke-linejoin="round"/>
<path d="M352.845 194.164L349.717 164.964" stroke="#171717" stroke-width="3" stroke-linecap="round" stroke-linejoin="round"/>
<path d="M440.441 229.148L450.882 226.828" stroke="#171717" stroke-width="3" stroke-linecap="round" stroke-linejoin="round"/>
<path d="M446.134 233.818L442.607 221.069" stroke="#171717" stroke-width="3" stroke-linecap="round" stroke-linejoin="round"/>
<path d="M467.124 152.943L454 150.616" stroke="#171717" stroke-width="3" stroke-linecap="round" stroke-linejoin="round"/>
<path d="M458.979 159.537L461.298 145.615" stroke="#171717" stroke-width="3" stroke-linecap="round" stroke-linejoin="round"/>
<path d="M40.2208 627.966C39.4678 696.114 74.8208 763.633 131.26 801.836" stroke="#171717" stroke-width="3" stroke-linecap="round" stroke-linejoin="round"/>
<path d="M284.74 201.683L275.84 194.455" stroke="#171717" stroke-width="3" stroke-linecap="round" stroke-linejoin="round"/>
<path d="M275.287 203.908L283.587 192.208" stroke="#171717" stroke-width="3" stroke-linecap="round" stroke-linejoin="round"/>
<path d="M184.759 340.535L167.406 327.521" stroke="#171717" stroke-width="3" stroke-linecap="round" stroke-linejoin="round"/>
<path d="M169.4 345.629L182.76 322.429" stroke="#171717" stroke-width="3" stroke-linecap="round" stroke-linejoin="round"/>
<path d="M219.711 202.2L209.162 195.5" stroke="#171717" stroke-width="3" stroke-linecap="round" stroke-linejoin="round"/>
<path d="M208.719 207.325L219.233 187.281" stroke="#171717" stroke-width="3" stroke-linecap="round" stroke-linejoin="round"/>
<path d="M91.8343 382.548C97.8583 382.391 103.773 384.176 108.704 387.64C113.635 391.104 117.321 396.062 119.218 401.781C121.114 407.501 121.121 413.679 119.236 419.403C117.351 425.127 113.674 430.092 108.75 433.566C103.371 437.36 95.8583 439.074 90.2133 435.688C84.5683 432.302 83.2133 422.717 88.8483 419.309C92.3403 417.195 97.1363 418.201 100.148 420.961C103.16 423.721 104.575 427.867 104.896 431.936C105.199 436.467 104.31 441 102.318 445.081C100.325 449.163 97.2981 452.651 93.5383 455.2C83.4753 461.849 70.0473 460.668 59.1693 465.878C54.8106 467.965 50.9895 471.026 48.0006 474.824C45.0117 478.622 42.9348 483.056 41.93 487.783C40.9252 492.51 41.0193 497.405 42.2051 502.091C43.3909 506.776 45.6366 511.126 48.7693 514.807" stroke="#171717" stroke-width="3" stroke-linecap="round" stroke-linejoin="round"/>
<path d="M875.412 330.9C862.565 345.839 861.282 369.54 872.441 385.778C875.622 390.407 879.864 394.55 885.182 396.358C890.5 398.166 896.995 397.188 900.714 392.979C904.433 388.77 904.149 381.265 899.469 378.16C893.03 373.887 883.84 380.896 883.498 388.615C883.156 396.334 888.56 403.104 894.398 408.16C904.632 417.014 918.213 424.87 920.033 438.28C920.545 442.847 919.567 447.456 917.245 451.421C914.923 455.386 911.38 458.494 907.147 460.28" stroke="#171717" stroke-width="3" stroke-linecap="round" stroke-linejoin="round"/>
<path d="M55.9489 442.355L44.2129 434.706" stroke="#171717" stroke-width="3" stroke-linecap="round" stroke-linejoin="round"/>
<path d="M45.9102 444.092L54.2522 432.969" stroke="#171717" stroke-width="3" stroke-linecap="round" stroke-linejoin="round"/>
<path d="M262.65 154.576L268.99 159.945C269.181 160.107 269.318 160.324 269.382 160.566C269.447 160.809 269.435 161.065 269.35 161.3C269.264 161.536 269.108 161.74 268.904 161.884C268.699 162.029 268.454 162.107 268.204 162.108L259.895 162.151C259.652 162.153 259.416 162.226 259.215 162.361C259.014 162.497 258.858 162.689 258.766 162.913L255.619 170.602C255.524 170.834 255.36 171.032 255.149 171.168C254.939 171.304 254.692 171.372 254.441 171.363C254.191 171.355 253.949 171.27 253.748 171.12C253.548 170.969 253.398 170.761 253.319 170.523L250.712 162.634C250.636 162.404 250.493 162.202 250.302 162.053C250.111 161.903 249.88 161.814 249.638 161.796L241.352 161.178C241.102 161.16 240.864 161.065 240.669 160.907C240.475 160.748 240.334 160.534 240.264 160.293C240.195 160.053 240.202 159.796 240.282 159.559C240.363 159.322 240.515 159.115 240.717 158.966L247.417 154.048C247.612 153.905 247.761 153.707 247.844 153.479C247.927 153.251 247.94 153.004 247.883 152.768L245.909 144.697C245.849 144.454 245.866 144.198 245.956 143.964C246.046 143.73 246.206 143.529 246.414 143.389C246.622 143.248 246.868 143.175 247.119 143.179C247.37 143.183 247.613 143.263 247.817 143.409L254.564 148.259C254.761 148.401 254.995 148.481 255.237 148.489C255.479 148.498 255.719 148.434 255.925 148.306L262.991 143.935C263.204 143.804 263.452 143.74 263.703 143.754C263.953 143.768 264.193 143.858 264.391 144.012C264.588 144.166 264.734 144.377 264.808 144.617C264.882 144.856 264.881 145.113 264.805 145.351L262.278 153.266C262.204 153.497 262.199 153.745 262.266 153.978C262.332 154.211 262.465 154.419 262.65 154.576Z" fill="#171717"/>
<g opacity="0.1">
<path d="M321.96 275.812C317.728 275.812 313.997 278.676 309.977 279.822C305.32 281.051 300.565 281.872 295.765 282.275C286.534 283.224 277.2 283.366 268.435 286.775C259.848 290.12 253.135 295.696 248.919 303.967C246.96 307.813 245.519 311.903 243.532 315.734C241.649 319.359 238.565 322.074 236.973 325.802C235.214 329.919 237.178 335.051 242.273 335.042C252.265 335.025 256.383 324.532 259.702 316.685C263.137 308.565 267.025 302.508 275.661 299.379C284.413 296.208 293.713 295.595 302.791 293.934C310.105 292.595 323.723 289.292 325.814 280.87C325.968 280.276 325.986 279.656 325.865 279.055C325.744 278.454 325.488 277.888 325.117 277.401C324.746 276.913 324.268 276.516 323.721 276.24C323.174 275.964 322.571 275.816 321.958 275.807L321.96 275.812Z" fill="#171717"/>
</g>
<g opacity="0.1">
<path d="M229.241 419.415C229.165 431.17 218.541 437.105 209.141 441.486C199.766 445.854 190.241 449.669 181.141 454.632C162.802 464.632 145.767 476.207 130.558 490.587C99.1993 520.234 74.7993 560.3 66.5383 602.9C62.4286 623.589 62.643 644.904 67.1681 665.507C71.6931 686.109 80.4309 705.553 92.8323 722.616C117.065 756.284 150.886 780.574 188.865 796.588C237.546 817.114 290.755 824.983 343.118 828.988C353.526 829.788 356.078 812.302 345.61 810.573C300.895 803.189 255.51 797.827 212.564 782.603C175.789 769.564 141.937 748.435 116.964 718.124C92.7793 688.765 80.5923 650.991 86.7893 613.09C93.5293 571.866 115.689 534.253 144.573 504.606C159.78 488.999 176.899 474.999 196.035 464.516C206.2 458.948 217.864 455.194 226.856 447.743C235.419 440.643 241.277 429.342 238.173 418.206C236.796 413.269 229.273 414.253 229.241 419.415V419.415Z" fill="#171717"/>
</g>
<path fill-rule="evenodd" clip-rule="evenodd" d="M541.356 386.678C546.864 391.152 548.93 390.811 559.273 390.121L656.779 384.266C658.847 384.266 657.128 382.203 656.438 381.86L640.244 370.153C637.141 367.744 633.007 364.986 625.084 365.676L530.669 372.562C527.225 372.903 526.538 374.625 527.909 376.005L541.356 386.678ZM547.21 409.401V511.995C547.21 517.509 549.965 519.572 556.167 519.231L663.326 513.03C669.531 512.689 670.222 508.897 670.222 504.417V402.512C670.222 398.04 668.502 395.629 664.704 395.973L552.721 402.512C548.588 402.859 547.21 404.927 547.21 409.401H547.21ZM652.998 414.905C653.685 418.006 652.998 421.105 649.89 421.454L644.727 422.483V498.224C640.244 500.633 636.11 502.011 632.666 502.011C627.151 502.011 625.769 500.288 621.638 495.127L587.865 442.107V493.405L598.552 495.817C598.552 495.817 598.552 502.011 589.93 502.011L566.16 503.39C565.47 502.011 566.16 498.571 568.571 497.882L574.774 496.163V428.337L566.162 427.647C565.471 424.545 567.191 420.073 572.019 419.726L597.518 418.007L632.666 471.717V424.204L623.704 423.176C623.017 419.384 625.769 416.631 629.215 416.289L652.998 414.905ZM522.741 363.267L620.949 356.035C633.009 355 636.112 355.693 643.692 361.199L675.041 383.233C680.214 387.022 681.938 388.054 681.938 392.184V513.03C681.938 520.604 679.179 525.083 669.533 525.768L555.484 532.655C548.243 533 544.797 531.968 541.005 527.146L517.919 497.193C513.783 491.679 512.062 487.554 512.062 482.729V375.312C512.062 369.119 514.822 363.953 522.741 363.267V363.267Z" fill="black"/>
</g>
<defs>
<clipPath id="clip0_348_1465">
<rect width="884" height="699" fill="white" transform="translate(38 131)"/>
</clipPath>
</defs>
</svg>
